<mxfile host="app.diagrams.net" modified="2020-12-06T15:13:10.693Z" agent="5.0 (Windows NT 10.0; Win64; x64) AppleWebKit/537.36 (KHTML, like Gecko) Chrome/87.0.4280.66 Safari/537.36" etag="ZC4udWAy1ORzfki5US6s" version="13.10.9" type="github" pages="3">
  <diagram id="vFtRHMUrVMOh6a7EenxF" name="Block design">
    <mxGraphModel dx="1110" dy="582" grid="1" gridSize="10" guides="1" tooltips="1" connect="1" arrows="1" fold="1" page="1" pageScale="1" pageWidth="827" pageHeight="1169" math="0" shadow="0">
      <root>
        <mxCell id="_I3hfithIGrH-CuD5pGY-0" />
        <mxCell id="_I3hfithIGrH-CuD5pGY-1" parent="_I3hfithIGrH-CuD5pGY-0" />
        <mxCell id="W4G-lgA26g_1acAsEhLz-0" value="" style="rounded=0;whiteSpace=wrap;html=1;" vertex="1" parent="_I3hfithIGrH-CuD5pGY-1">
          <mxGeometry x="80" y="157" width="680" height="400" as="geometry" />
        </mxCell>
        <mxCell id="W4G-lgA26g_1acAsEhLz-1" value="" style="rounded=0;whiteSpace=wrap;html=1;" vertex="1" parent="_I3hfithIGrH-CuD5pGY-1">
          <mxGeometry x="80" y="157" width="680" height="40" as="geometry" />
        </mxCell>
        <mxCell id="W4G-lgA26g_1acAsEhLz-2" value="" style="rounded=0;whiteSpace=wrap;html=1;" vertex="1" parent="_I3hfithIGrH-CuD5pGY-1">
          <mxGeometry x="80" y="197" width="680" height="40" as="geometry" />
        </mxCell>
        <mxCell id="W4G-lgA26g_1acAsEhLz-3" value="" style="rounded=0;whiteSpace=wrap;html=1;" vertex="1" parent="_I3hfithIGrH-CuD5pGY-1">
          <mxGeometry x="80" y="237" width="680" height="30" as="geometry" />
        </mxCell>
        <mxCell id="W4G-lgA26g_1acAsEhLz-4" value="" style="rounded=0;whiteSpace=wrap;html=1;" vertex="1" parent="_I3hfithIGrH-CuD5pGY-1">
          <mxGeometry x="80" y="237" width="30" height="30" as="geometry" />
        </mxCell>
        <mxCell id="W4G-lgA26g_1acAsEhLz-5" value="" style="rounded=0;whiteSpace=wrap;html=1;" vertex="1" parent="_I3hfithIGrH-CuD5pGY-1">
          <mxGeometry x="100" y="207" width="20" height="20" as="geometry" />
        </mxCell>
        <mxCell id="W4G-lgA26g_1acAsEhLz-6" value="" style="rounded=0;whiteSpace=wrap;html=1;" vertex="1" parent="_I3hfithIGrH-CuD5pGY-1">
          <mxGeometry x="130" y="207" width="20" height="20" as="geometry" />
        </mxCell>
        <mxCell id="W4G-lgA26g_1acAsEhLz-7" value="" style="rounded=0;whiteSpace=wrap;html=1;" vertex="1" parent="_I3hfithIGrH-CuD5pGY-1">
          <mxGeometry x="160" y="207" width="20" height="20" as="geometry" />
        </mxCell>
        <mxCell id="W4G-lgA26g_1acAsEhLz-8" value="" style="rounded=0;whiteSpace=wrap;html=1;" vertex="1" parent="_I3hfithIGrH-CuD5pGY-1">
          <mxGeometry x="190" y="207" width="20" height="20" as="geometry" />
        </mxCell>
        <mxCell id="W4G-lgA26g_1acAsEhLz-10" value="" style="rounded=0;whiteSpace=wrap;html=1;" vertex="1" parent="_I3hfithIGrH-CuD5pGY-1">
          <mxGeometry x="700" y="167" width="20" height="20" as="geometry" />
        </mxCell>
        <mxCell id="W4G-lgA26g_1acAsEhLz-11" value="" style="rounded=0;whiteSpace=wrap;html=1;" vertex="1" parent="_I3hfithIGrH-CuD5pGY-1">
          <mxGeometry x="730" y="167" width="20" height="20" as="geometry" />
        </mxCell>
        <mxCell id="W4G-lgA26g_1acAsEhLz-12" value="fx" style="text;html=1;strokeColor=none;fillColor=none;align=center;verticalAlign=middle;whiteSpace=wrap;rounded=0;" vertex="1" parent="_I3hfithIGrH-CuD5pGY-1">
          <mxGeometry x="75" y="242" width="40" height="20" as="geometry" />
        </mxCell>
        <mxCell id="W4G-lgA26g_1acAsEhLz-13" value="input" style="text;html=1;strokeColor=none;fillColor=none;align=center;verticalAlign=middle;whiteSpace=wrap;rounded=0;" vertex="1" parent="_I3hfithIGrH-CuD5pGY-1">
          <mxGeometry x="120" y="242" width="40" height="20" as="geometry" />
        </mxCell>
        <mxCell id="W4G-lgA26g_1acAsEhLz-14" value="" style="rounded=0;whiteSpace=wrap;html=1;" vertex="1" parent="_I3hfithIGrH-CuD5pGY-1">
          <mxGeometry x="80" y="267" width="50" height="20" as="geometry" />
        </mxCell>
        <mxCell id="W4G-lgA26g_1acAsEhLz-15" value="" style="rounded=0;whiteSpace=wrap;html=1;" vertex="1" parent="_I3hfithIGrH-CuD5pGY-1">
          <mxGeometry x="130" y="267" width="50" height="20" as="geometry" />
        </mxCell>
        <mxCell id="W4G-lgA26g_1acAsEhLz-16" value="" style="rounded=0;whiteSpace=wrap;html=1;" vertex="1" parent="_I3hfithIGrH-CuD5pGY-1">
          <mxGeometry x="80" y="287" width="50" height="20" as="geometry" />
        </mxCell>
        <mxCell id="W4G-lgA26g_1acAsEhLz-17" value="A" style="text;html=1;strokeColor=none;fillColor=none;align=center;verticalAlign=middle;whiteSpace=wrap;rounded=0;" vertex="1" parent="_I3hfithIGrH-CuD5pGY-1">
          <mxGeometry x="135" y="267" width="40" height="20" as="geometry" />
        </mxCell>
        <mxCell id="W4G-lgA26g_1acAsEhLz-18" value="1" style="text;html=1;strokeColor=none;fillColor=none;align=center;verticalAlign=middle;whiteSpace=wrap;rounded=0;" vertex="1" parent="_I3hfithIGrH-CuD5pGY-1">
          <mxGeometry x="85" y="287" width="40" height="20" as="geometry" />
        </mxCell>
        <mxCell id="W4G-lgA26g_1acAsEhLz-19" value="" style="rounded=0;whiteSpace=wrap;html=1;" vertex="1" parent="_I3hfithIGrH-CuD5pGY-1">
          <mxGeometry x="180" y="267" width="50" height="20" as="geometry" />
        </mxCell>
        <mxCell id="W4G-lgA26g_1acAsEhLz-20" value="B" style="text;html=1;strokeColor=none;fillColor=none;align=center;verticalAlign=middle;whiteSpace=wrap;rounded=0;" vertex="1" parent="_I3hfithIGrH-CuD5pGY-1">
          <mxGeometry x="185" y="267" width="40" height="20" as="geometry" />
        </mxCell>
        <mxCell id="W4G-lgA26g_1acAsEhLz-25" value="" style="rounded=0;whiteSpace=wrap;html=1;" vertex="1" parent="_I3hfithIGrH-CuD5pGY-1">
          <mxGeometry x="80" y="307" width="50" height="20" as="geometry" />
        </mxCell>
        <mxCell id="W4G-lgA26g_1acAsEhLz-26" value="2" style="text;html=1;strokeColor=none;fillColor=none;align=center;verticalAlign=middle;whiteSpace=wrap;rounded=0;" vertex="1" parent="_I3hfithIGrH-CuD5pGY-1">
          <mxGeometry x="85" y="307" width="40" height="20" as="geometry" />
        </mxCell>
        <mxCell id="W4G-lgA26g_1acAsEhLz-29" value="TABLE" style="text;html=1;strokeColor=none;fillColor=none;align=center;verticalAlign=middle;whiteSpace=wrap;rounded=0;" vertex="1" parent="_I3hfithIGrH-CuD5pGY-1">
          <mxGeometry x="400" y="377" width="40" height="20" as="geometry" />
        </mxCell>
        <mxCell id="W4G-lgA26g_1acAsEhLz-30" value="Table name" style="text;html=1;strokeColor=none;fillColor=none;align=center;verticalAlign=middle;whiteSpace=wrap;rounded=0;" vertex="1" parent="_I3hfithIGrH-CuD5pGY-1">
          <mxGeometry x="90" y="167" width="90" height="20" as="geometry" />
        </mxCell>
        <mxCell id="W4G-lgA26g_1acAsEhLz-31" value="Excel Page" style="text;html=1;strokeColor=none;fillColor=none;align=center;verticalAlign=middle;whiteSpace=wrap;rounded=0;" vertex="1" parent="_I3hfithIGrH-CuD5pGY-1">
          <mxGeometry x="85" y="132" width="65" height="20" as="geometry" />
        </mxCell>
        <mxCell id="W4G-lgA26g_1acAsEhLz-32" value="Header" style="text;html=1;strokeColor=none;fillColor=none;align=center;verticalAlign=middle;whiteSpace=wrap;rounded=0;" vertex="1" parent="_I3hfithIGrH-CuD5pGY-1">
          <mxGeometry x="20" y="167" width="40" height="20" as="geometry" />
        </mxCell>
        <mxCell id="W4G-lgA26g_1acAsEhLz-33" value="Toolbar" style="text;html=1;strokeColor=none;fillColor=none;align=center;verticalAlign=middle;whiteSpace=wrap;rounded=0;" vertex="1" parent="_I3hfithIGrH-CuD5pGY-1">
          <mxGeometry x="20" y="207" width="40" height="20" as="geometry" />
        </mxCell>
        <mxCell id="W4G-lgA26g_1acAsEhLz-34" value="Formula" style="text;html=1;strokeColor=none;fillColor=none;align=center;verticalAlign=middle;whiteSpace=wrap;rounded=0;" vertex="1" parent="_I3hfithIGrH-CuD5pGY-1">
          <mxGeometry x="20" y="242" width="40" height="20" as="geometry" />
        </mxCell>
        <mxCell id="W4G-lgA26g_1acAsEhLz-35" value="" style="rounded=0;whiteSpace=wrap;html=1;" vertex="1" parent="_I3hfithIGrH-CuD5pGY-1">
          <mxGeometry x="220" y="207" width="20" height="20" as="geometry" />
        </mxCell>
        <mxCell id="W4G-lgA26g_1acAsEhLz-36" value="" style="rounded=0;whiteSpace=wrap;html=1;" vertex="1" parent="_I3hfithIGrH-CuD5pGY-1">
          <mxGeometry x="250" y="207" width="20" height="20" as="geometry" />
        </mxCell>
        <mxCell id="W4G-lgA26g_1acAsEhLz-37" value="" style="rounded=0;whiteSpace=wrap;html=1;" vertex="1" parent="_I3hfithIGrH-CuD5pGY-1">
          <mxGeometry x="80" y="637" width="680" height="400" as="geometry" />
        </mxCell>
        <mxCell id="W4G-lgA26g_1acAsEhLz-38" value="Dashboard page" style="text;html=1;strokeColor=none;fillColor=none;align=center;verticalAlign=middle;whiteSpace=wrap;rounded=0;" vertex="1" parent="_I3hfithIGrH-CuD5pGY-1">
          <mxGeometry x="80" y="607" width="100" height="20" as="geometry" />
        </mxCell>
        <mxCell id="W4G-lgA26g_1acAsEhLz-39" value="" style="rounded=0;whiteSpace=wrap;html=1;" vertex="1" parent="_I3hfithIGrH-CuD5pGY-1">
          <mxGeometry x="80" y="637" width="680" height="40" as="geometry" />
        </mxCell>
        <mxCell id="W4G-lgA26g_1acAsEhLz-40" value="Excel Dashboard" style="text;html=1;strokeColor=none;fillColor=none;align=center;verticalAlign=middle;whiteSpace=wrap;rounded=0;" vertex="1" parent="_I3hfithIGrH-CuD5pGY-1">
          <mxGeometry x="370" y="647" width="100" height="20" as="geometry" />
        </mxCell>
        <mxCell id="W4G-lgA26g_1acAsEhLz-41" value="" style="rounded=0;whiteSpace=wrap;html=1;" vertex="1" parent="_I3hfithIGrH-CuD5pGY-1">
          <mxGeometry x="120" y="717" width="120" height="100" as="geometry" />
        </mxCell>
        <mxCell id="W4G-lgA26g_1acAsEhLz-42" value="Header" style="text;html=1;strokeColor=none;fillColor=none;align=center;verticalAlign=middle;whiteSpace=wrap;rounded=0;" vertex="1" parent="_I3hfithIGrH-CuD5pGY-1">
          <mxGeometry x="20" y="647" width="40" height="20" as="geometry" />
        </mxCell>
        <mxCell id="W4G-lgA26g_1acAsEhLz-43" value="Page&lt;br&gt;List" style="text;html=1;strokeColor=none;fillColor=none;align=center;verticalAlign=middle;whiteSpace=wrap;rounded=0;" vertex="1" parent="_I3hfithIGrH-CuD5pGY-1">
          <mxGeometry x="20" y="757" width="40" height="20" as="geometry" />
        </mxCell>
        <mxCell id="W4G-lgA26g_1acAsEhLz-44" value="&lt;font style=&quot;font-size: 20px&quot;&gt;Design EXCEL&lt;/font&gt;" style="text;html=1;strokeColor=none;fillColor=none;align=center;verticalAlign=middle;whiteSpace=wrap;rounded=0;strokeWidth=2;" vertex="1" parent="_I3hfithIGrH-CuD5pGY-1">
          <mxGeometry x="304" y="70" width="218.5" height="20" as="geometry" />
        </mxCell>
        <mxCell id="W4G-lgA26g_1acAsEhLz-45" value="Name page" style="text;html=1;strokeColor=none;fillColor=none;align=center;verticalAlign=middle;whiteSpace=wrap;rounded=0;" vertex="1" parent="_I3hfithIGrH-CuD5pGY-1">
          <mxGeometry x="145" y="757" width="70" height="20" as="geometry" />
        </mxCell>
      </root>
    </mxGraphModel>
  </diagram>
  <diagram id="dY-bjGFec7zKFpBLRAd6" name="Logic">
    <mxGraphModel dx="2336" dy="1237" grid="1" gridSize="10" guides="1" tooltips="1" connect="1" arrows="1" fold="1" page="1" pageScale="1" pageWidth="827" pageHeight="1169" math="0" shadow="0">
      <root>
        <mxCell id="0" />
        <mxCell id="1" parent="0" />
        <mxCell id="LvVDoweEeMKHDP0wGKu2-4" value="" style="edgeStyle=orthogonalEdgeStyle;rounded=0;orthogonalLoop=1;jettySize=auto;html=1;" edge="1" parent="1" source="LvVDoweEeMKHDP0wGKu2-1" target="LvVDoweEeMKHDP0wGKu2-3">
          <mxGeometry relative="1" as="geometry" />
        </mxCell>
        <mxCell id="LvVDoweEeMKHDP0wGKu2-1" value="" style="rounded=0;whiteSpace=wrap;html=1;" vertex="1" parent="1">
          <mxGeometry x="320" y="240" width="200" height="120" as="geometry" />
        </mxCell>
        <mxCell id="LvVDoweEeMKHDP0wGKu2-2" value="ExcelComponent" style="text;html=1;strokeColor=none;fillColor=none;align=center;verticalAlign=middle;whiteSpace=wrap;rounded=0;" vertex="1" parent="1">
          <mxGeometry x="400" y="290" width="40" height="20" as="geometry" />
        </mxCell>
        <mxCell id="LvVDoweEeMKHDP0wGKu2-3" value="" style="rounded=0;whiteSpace=wrap;html=1;" vertex="1" parent="1">
          <mxGeometry x="560" y="240" width="200" height="120" as="geometry" />
        </mxCell>
        <mxCell id="LvVDoweEeMKHDP0wGKu2-5" value="DOMListener" style="text;html=1;strokeColor=none;fillColor=none;align=center;verticalAlign=middle;whiteSpace=wrap;rounded=0;" vertex="1" parent="1">
          <mxGeometry x="640" y="290" width="40" height="20" as="geometry" />
        </mxCell>
        <mxCell id="LvVDoweEeMKHDP0wGKu2-6" value="Добавление&lt;br&gt;слушателя" style="text;html=1;strokeColor=none;fillColor=none;align=center;verticalAlign=middle;whiteSpace=wrap;rounded=0;" vertex="1" parent="1">
          <mxGeometry x="574" y="370" width="40" height="20" as="geometry" />
        </mxCell>
        <mxCell id="LvVDoweEeMKHDP0wGKu2-7" value="Удаление&lt;br&gt;слушателя" style="text;html=1;strokeColor=none;fillColor=none;align=center;verticalAlign=middle;whiteSpace=wrap;rounded=0;" vertex="1" parent="1">
          <mxGeometry x="710" y="370" width="40" height="20" as="geometry" />
        </mxCell>
        <mxCell id="LvVDoweEeMKHDP0wGKu2-8" value="" style="rounded=0;whiteSpace=wrap;html=1;" vertex="1" parent="1">
          <mxGeometry x="120" y="520" width="120" height="60" as="geometry" />
        </mxCell>
        <mxCell id="LvVDoweEeMKHDP0wGKu2-9" value="Header" style="text;html=1;strokeColor=none;fillColor=none;align=center;verticalAlign=middle;whiteSpace=wrap;rounded=0;" vertex="1" parent="1">
          <mxGeometry x="160" y="540" width="40" height="20" as="geometry" />
        </mxCell>
        <mxCell id="LvVDoweEeMKHDP0wGKu2-10" value="" style="rounded=0;whiteSpace=wrap;html=1;" vertex="1" parent="1">
          <mxGeometry x="280" y="520" width="120" height="60" as="geometry" />
        </mxCell>
        <mxCell id="LvVDoweEeMKHDP0wGKu2-11" value="Toolbar" style="text;html=1;strokeColor=none;fillColor=none;align=center;verticalAlign=middle;whiteSpace=wrap;rounded=0;" vertex="1" parent="1">
          <mxGeometry x="320" y="540" width="40" height="20" as="geometry" />
        </mxCell>
        <mxCell id="LvVDoweEeMKHDP0wGKu2-12" value="" style="rounded=0;whiteSpace=wrap;html=1;" vertex="1" parent="1">
          <mxGeometry x="440" y="520" width="120" height="60" as="geometry" />
        </mxCell>
        <mxCell id="LvVDoweEeMKHDP0wGKu2-13" value="Formula" style="text;html=1;strokeColor=none;fillColor=none;align=center;verticalAlign=middle;whiteSpace=wrap;rounded=0;" vertex="1" parent="1">
          <mxGeometry x="480" y="540" width="40" height="20" as="geometry" />
        </mxCell>
        <mxCell id="LvVDoweEeMKHDP0wGKu2-14" value="" style="rounded=0;whiteSpace=wrap;html=1;" vertex="1" parent="1">
          <mxGeometry x="600" y="520" width="120" height="60" as="geometry" />
        </mxCell>
        <mxCell id="LvVDoweEeMKHDP0wGKu2-15" value="Table" style="text;html=1;strokeColor=none;fillColor=none;align=center;verticalAlign=middle;whiteSpace=wrap;rounded=0;" vertex="1" parent="1">
          <mxGeometry x="640" y="540" width="40" height="20" as="geometry" />
        </mxCell>
        <mxCell id="LvVDoweEeMKHDP0wGKu2-16" value="" style="endArrow=classic;html=1;exitX=0.5;exitY=1;exitDx=0;exitDy=0;entryX=0.647;entryY=-0.035;entryDx=0;entryDy=0;entryPerimeter=0;" edge="1" parent="1" source="LvVDoweEeMKHDP0wGKu2-1" target="LvVDoweEeMKHDP0wGKu2-8">
          <mxGeometry width="50" height="50" relative="1" as="geometry">
            <mxPoint x="580" y="510" as="sourcePoint" />
            <mxPoint x="630" y="460" as="targetPoint" />
          </mxGeometry>
        </mxCell>
        <mxCell id="LvVDoweEeMKHDP0wGKu2-19" value="" style="endArrow=classic;html=1;exitX=0.5;exitY=1;exitDx=0;exitDy=0;entryX=0.5;entryY=0;entryDx=0;entryDy=0;" edge="1" parent="1" source="LvVDoweEeMKHDP0wGKu2-1" target="LvVDoweEeMKHDP0wGKu2-12">
          <mxGeometry width="50" height="50" relative="1" as="geometry">
            <mxPoint x="346.79999999999995" y="361.0799999999999" as="sourcePoint" />
            <mxPoint x="510" y="520" as="targetPoint" />
            <Array as="points" />
          </mxGeometry>
        </mxCell>
        <mxCell id="LvVDoweEeMKHDP0wGKu2-20" value="" style="endArrow=classic;html=1;exitX=0.5;exitY=1;exitDx=0;exitDy=0;entryX=0.5;entryY=0;entryDx=0;entryDy=0;" edge="1" parent="1" source="LvVDoweEeMKHDP0wGKu2-1" target="LvVDoweEeMKHDP0wGKu2-10">
          <mxGeometry width="50" height="50" relative="1" as="geometry">
            <mxPoint x="580" y="510" as="sourcePoint" />
            <mxPoint x="630" y="460" as="targetPoint" />
          </mxGeometry>
        </mxCell>
        <mxCell id="LvVDoweEeMKHDP0wGKu2-21" value="" style="endArrow=classic;html=1;exitX=0.5;exitY=1;exitDx=0;exitDy=0;entryX=0.5;entryY=0;entryDx=0;entryDy=0;" edge="1" parent="1" source="LvVDoweEeMKHDP0wGKu2-1" target="LvVDoweEeMKHDP0wGKu2-14">
          <mxGeometry width="50" height="50" relative="1" as="geometry">
            <mxPoint x="346.79999999999995" y="361.0799999999999" as="sourcePoint" />
            <mxPoint x="510" y="520" as="targetPoint" />
            <Array as="points" />
          </mxGeometry>
        </mxCell>
        <mxCell id="LvVDoweEeMKHDP0wGKu2-22" value="" style="rounded=0;whiteSpace=wrap;html=1;" vertex="1" parent="1">
          <mxGeometry x="320" y="720" width="200" height="120" as="geometry" />
        </mxCell>
        <mxCell id="LvVDoweEeMKHDP0wGKu2-23" value="Excel" style="text;html=1;strokeColor=none;fillColor=none;align=center;verticalAlign=middle;whiteSpace=wrap;rounded=0;" vertex="1" parent="1">
          <mxGeometry x="400" y="770" width="40" height="20" as="geometry" />
        </mxCell>
        <mxCell id="LvVDoweEeMKHDP0wGKu2-24" value="" style="endArrow=classic;html=1;entryX=0.5;entryY=1;entryDx=0;entryDy=0;exitX=0.5;exitY=0;exitDx=0;exitDy=0;" edge="1" parent="1" source="LvVDoweEeMKHDP0wGKu2-22" target="LvVDoweEeMKHDP0wGKu2-8">
          <mxGeometry width="50" height="50" relative="1" as="geometry">
            <mxPoint x="370" y="720" as="sourcePoint" />
            <mxPoint x="420" y="670" as="targetPoint" />
          </mxGeometry>
        </mxCell>
        <mxCell id="LvVDoweEeMKHDP0wGKu2-25" value="" style="endArrow=classic;html=1;entryX=0.547;entryY=1.044;entryDx=0;entryDy=0;exitX=0.5;exitY=0;exitDx=0;exitDy=0;entryPerimeter=0;" edge="1" parent="1" source="LvVDoweEeMKHDP0wGKu2-22" target="LvVDoweEeMKHDP0wGKu2-10">
          <mxGeometry width="50" height="50" relative="1" as="geometry">
            <mxPoint x="370" y="720" as="sourcePoint" />
            <mxPoint x="420" y="670" as="targetPoint" />
          </mxGeometry>
        </mxCell>
        <mxCell id="LvVDoweEeMKHDP0wGKu2-26" value="" style="endArrow=classic;html=1;entryX=0.5;entryY=1;entryDx=0;entryDy=0;exitX=0.5;exitY=0;exitDx=0;exitDy=0;" edge="1" parent="1" source="LvVDoweEeMKHDP0wGKu2-22" target="LvVDoweEeMKHDP0wGKu2-12">
          <mxGeometry width="50" height="50" relative="1" as="geometry">
            <mxPoint x="370" y="720" as="sourcePoint" />
            <mxPoint x="420" y="670" as="targetPoint" />
          </mxGeometry>
        </mxCell>
        <mxCell id="LvVDoweEeMKHDP0wGKu2-27" value="" style="endArrow=classic;html=1;entryX=0.5;entryY=1;entryDx=0;entryDy=0;exitX=0.5;exitY=0;exitDx=0;exitDy=0;" edge="1" parent="1" source="LvVDoweEeMKHDP0wGKu2-22" target="LvVDoweEeMKHDP0wGKu2-14">
          <mxGeometry width="50" height="50" relative="1" as="geometry">
            <mxPoint x="370" y="720" as="sourcePoint" />
            <mxPoint x="420" y="670" as="targetPoint" />
          </mxGeometry>
        </mxCell>
        <mxCell id="LvVDoweEeMKHDP0wGKu2-28" value="Вывести в HTML" style="text;html=1;strokeColor=none;fillColor=none;align=center;verticalAlign=middle;whiteSpace=wrap;rounded=0;" vertex="1" parent="1">
          <mxGeometry x="320" y="850" width="200" height="20" as="geometry" />
        </mxCell>
      </root>
    </mxGraphModel>
  </diagram>
  <diagram id="PMsYBgm7meW596o6pwUj" name="Work with listeners">
    <mxGraphModel dx="784" dy="794" grid="1" gridSize="10" guides="1" tooltips="1" connect="1" arrows="1" fold="1" page="1" pageScale="1" pageWidth="827" pageHeight="1169" math="0" shadow="0">
      <root>
        <mxCell id="jGTfACazgVq9nn5s4xvR-0" />
        <mxCell id="jGTfACazgVq9nn5s4xvR-1" parent="jGTfACazgVq9nn5s4xvR-0" />
        <mxCell id="jGTfACazgVq9nn5s4xvR-7" value="" style="edgeStyle=orthogonalEdgeStyle;rounded=0;orthogonalLoop=1;jettySize=auto;html=1;entryX=0;entryY=0.5;entryDx=0;entryDy=0;" edge="1" parent="jGTfACazgVq9nn5s4xvR-1" source="jGTfACazgVq9nn5s4xvR-2" target="jGTfACazgVq9nn5s4xvR-5">
          <mxGeometry relative="1" as="geometry">
            <mxPoint x="280" y="110" as="targetPoint" />
          </mxGeometry>
        </mxCell>
        <mxCell id="jGTfACazgVq9nn5s4xvR-2" value="" style="rounded=0;whiteSpace=wrap;html=1;strokeWidth=2;" vertex="1" parent="jGTfACazgVq9nn5s4xvR-1">
          <mxGeometry x="120" y="80" width="120" height="60" as="geometry" />
        </mxCell>
        <mxCell id="jGTfACazgVq9nn5s4xvR-3" value="Formula" style="text;html=1;strokeColor=none;fillColor=none;align=center;verticalAlign=middle;whiteSpace=wrap;rounded=0;" vertex="1" parent="jGTfACazgVq9nn5s4xvR-1">
          <mxGeometry x="160" y="100" width="40" height="20" as="geometry" />
        </mxCell>
        <mxCell id="jGTfACazgVq9nn5s4xvR-4" value="input" style="text;html=1;strokeColor=none;fillColor=none;align=center;verticalAlign=middle;whiteSpace=wrap;rounded=0;" vertex="1" parent="jGTfACazgVq9nn5s4xvR-1">
          <mxGeometry x="120" y="160" width="40" height="20" as="geometry" />
        </mxCell>
        <mxCell id="jGTfACazgVq9nn5s4xvR-5" value="DomListener" style="rounded=0;whiteSpace=wrap;html=1;strokeWidth=2;" vertex="1" parent="jGTfACazgVq9nn5s4xvR-1">
          <mxGeometry x="520" y="80" width="200" height="60" as="geometry" />
        </mxCell>
        <mxCell id="jGTfACazgVq9nn5s4xvR-8" value="$root" style="text;html=1;strokeColor=none;fillColor=none;align=center;verticalAlign=middle;whiteSpace=wrap;rounded=0;" vertex="1" parent="jGTfACazgVq9nn5s4xvR-1">
          <mxGeometry x="60" y="100" width="40" height="20" as="geometry" />
        </mxCell>
        <mxCell id="jGTfACazgVq9nn5s4xvR-13" value="" style="edgeStyle=orthogonalEdgeStyle;rounded=0;orthogonalLoop=1;jettySize=auto;html=1;" edge="1" parent="jGTfACazgVq9nn5s4xvR-1" source="jGTfACazgVq9nn5s4xvR-9">
          <mxGeometry relative="1" as="geometry">
            <mxPoint x="630" y="170" as="targetPoint" />
          </mxGeometry>
        </mxCell>
        <mxCell id="jGTfACazgVq9nn5s4xvR-9" value="$root" style="text;html=1;strokeColor=none;fillColor=none;align=center;verticalAlign=middle;whiteSpace=wrap;rounded=0;" vertex="1" parent="jGTfACazgVq9nn5s4xvR-1">
          <mxGeometry x="520" y="160" width="40" height="20" as="geometry" />
        </mxCell>
        <mxCell id="jGTfACazgVq9nn5s4xvR-17" value="" style="edgeStyle=orthogonalEdgeStyle;rounded=0;orthogonalLoop=1;jettySize=auto;html=1;" edge="1" parent="jGTfACazgVq9nn5s4xvR-1" source="jGTfACazgVq9nn5s4xvR-12">
          <mxGeometry relative="1" as="geometry">
            <mxPoint x="680" y="220" as="targetPoint" />
          </mxGeometry>
        </mxCell>
        <mxCell id="jGTfACazgVq9nn5s4xvR-12" value="addEventListener" style="text;html=1;strokeColor=none;fillColor=none;align=center;verticalAlign=middle;whiteSpace=wrap;rounded=0;" vertex="1" parent="jGTfACazgVq9nn5s4xvR-1">
          <mxGeometry x="660" y="160" width="40" height="20" as="geometry" />
        </mxCell>
        <mxCell id="jGTfACazgVq9nn5s4xvR-18" value="" style="edgeStyle=orthogonalEdgeStyle;rounded=0;orthogonalLoop=1;jettySize=auto;html=1;" edge="1" parent="jGTfACazgVq9nn5s4xvR-1" source="jGTfACazgVq9nn5s4xvR-15" target="jGTfACazgVq9nn5s4xvR-16">
          <mxGeometry relative="1" as="geometry" />
        </mxCell>
        <mxCell id="jGTfACazgVq9nn5s4xvR-15" value="input" style="text;html=1;strokeColor=none;fillColor=none;align=center;verticalAlign=middle;whiteSpace=wrap;rounded=0;" vertex="1" parent="jGTfACazgVq9nn5s4xvR-1">
          <mxGeometry x="660" y="220" width="40" height="20" as="geometry" />
        </mxCell>
        <mxCell id="jGTfACazgVq9nn5s4xvR-16" value="onInput" style="text;html=1;strokeColor=none;fillColor=none;align=center;verticalAlign=middle;whiteSpace=wrap;rounded=0;" vertex="1" parent="jGTfACazgVq9nn5s4xvR-1">
          <mxGeometry x="660" y="280" width="40" height="20" as="geometry" />
        </mxCell>
      </root>
    </mxGraphModel>
  </diagram>
</mxfile>
